<svg width="88" height="31" viewBox="0 0 88 31" fill="none" xmlns="http://www.w3.org/2000/svg">
<path d="M5.524 9.588C5.99067 8.86 6.63467 8.272 7.456 7.824C8.27733 7.376 9.23867 7.152 10.34 7.152C11.628 7.152 12.7947 7.47867 13.84 8.132C14.8853 8.78533 15.7067 9.71867 16.304 10.932C16.92 12.1453 17.228 13.5547 17.228 15.16C17.228 16.7653 16.92 18.184 16.304 19.416C15.7067 20.6293 14.8853 21.572 13.84 22.244C12.7947 22.8973 11.628 23.224 10.34 23.224C9.25733 23.224 8.296 23 7.456 22.552C6.63467 22.104 5.99067 21.5253 5.524 20.816V30.448H0.736V7.376H5.524V9.588ZM12.356 15.16C12.356 13.9653 12.02 13.032 11.348 12.36C10.6947 11.6693 9.88267 11.324 8.912 11.324C7.96 11.324 7.148 11.6693 6.476 12.36C5.82267 13.0507 5.496 13.9933 5.496 15.188C5.496 16.3827 5.82267 17.3253 6.476 18.016C7.148 18.7067 7.96 19.052 8.912 19.052C9.864 19.052 10.676 18.7067 11.348 18.016C12.02 17.3067 12.356 16.3547 12.356 15.16ZM22.1479 5.752C21.3079 5.752 20.6172 5.50933 20.0759 5.024C19.5532 4.52 19.2919 3.904 19.2919 3.176C19.2919 2.42933 19.5532 1.81333 20.0759 1.328C20.6172 0.823998 21.3079 0.571998 22.1479 0.571998C22.9692 0.571998 23.6412 0.823998 24.1639 1.328C24.7052 1.81333 24.9759 2.42933 24.9759 3.176C24.9759 3.904 24.7052 4.52 24.1639 5.024C23.6412 5.50933 22.9692 5.752 22.1479 5.752ZM24.5279 7.376V23H19.7399V7.376H24.5279ZM32.7857 9.588C33.2524 8.86 33.8964 8.272 34.7177 7.824C35.5391 7.376 36.5004 7.152 37.6017 7.152C38.8897 7.152 40.0564 7.47867 41.1017 8.132C42.1471 8.78533 42.9684 9.71867 43.5657 10.932C44.1817 12.1453 44.4897 13.5547 44.4897 15.16C44.4897 16.7653 44.1817 18.184 43.5657 19.416C42.9684 20.6293 42.1471 21.572 41.1017 22.244C40.0564 22.8973 38.8897 23.224 37.6017 23.224C36.5191 23.224 35.5577 23 34.7177 22.552C33.8964 22.104 33.2524 21.5253 32.7857 20.816V30.448H27.9977V7.376H32.7857V9.588ZM39.6177 15.16C39.6177 13.9653 39.2817 13.032 38.6097 12.36C37.9564 11.6693 37.1444 11.324 36.1737 11.324C35.2217 11.324 34.4097 11.6693 33.7377 12.36C33.0844 13.0507 32.7577 13.9933 32.7577 15.188C32.7577 16.3827 33.0844 17.3253 33.7377 18.016C34.4097 18.7067 35.2217 19.052 36.1737 19.052C37.1257 19.052 37.9377 18.7067 38.6097 18.016C39.2817 17.3067 39.6177 16.3547 39.6177 15.16ZM51.7896 2.28V23H47.0016V2.28H51.7896Z" fill="#1F1F1F"/>
<path d="M57.4994 23.224C56.6594 23.224 55.9688 22.9813 55.4274 22.496C54.9048 21.992 54.6434 21.376 54.6434 20.648C54.6434 19.9013 54.9048 19.276 55.4274 18.772C55.9688 18.268 56.6594 18.016 57.4994 18.016C58.3208 18.016 58.9928 18.268 59.5154 18.772C60.0568 19.276 60.3274 19.9013 60.3274 20.648C60.3274 21.376 60.0568 21.992 59.5154 22.496C58.9928 22.9813 58.3208 23.224 57.4994 23.224ZM62.2098 15.16C62.2098 13.5547 62.5084 12.1453 63.1058 10.932C63.7218 9.71867 64.5524 8.78533 65.5978 8.132C66.6431 7.47867 67.8098 7.152 69.0978 7.152C70.1991 7.152 71.1604 7.376 71.9818 7.824C72.8218 8.272 73.4658 8.86 73.9138 9.588V7.376H78.7018V23H73.9138V20.788C73.4471 21.516 72.7938 22.104 71.9538 22.552C71.1324 23 70.1711 23.224 69.0698 23.224C67.8004 23.224 66.6431 22.8973 65.5978 22.244C64.5524 21.572 63.7218 20.6293 63.1058 19.416C62.5084 18.184 62.2098 16.7653 62.2098 15.16ZM73.9138 15.188C73.9138 13.9933 73.5778 13.0507 72.9058 12.36C72.2524 11.6693 71.4498 11.324 70.4978 11.324C69.5458 11.324 68.7338 11.6693 68.0618 12.36C67.4084 13.032 67.0818 13.9653 67.0818 15.16C67.0818 16.3547 67.4084 17.3067 68.0618 18.016C68.7338 18.7067 69.5458 19.052 70.4978 19.052C71.4498 19.052 72.2524 18.7067 72.9058 18.016C73.5778 17.3253 73.9138 16.3827 73.9138 15.188ZM84.5737 5.752C83.7337 5.752 83.043 5.50933 82.5017 5.024C81.979 4.52 81.7177 3.904 81.7177 3.176C81.7177 2.42933 81.979 1.81333 82.5017 1.328C83.043 0.823998 83.7337 0.571998 84.5737 0.571998C85.395 0.571998 86.067 0.823998 86.5897 1.328C87.131 1.81333 87.4017 2.42933 87.4017 3.176C87.4017 3.904 87.131 4.52 86.5897 5.024C86.067 5.50933 85.395 5.752 84.5737 5.752ZM86.9537 7.376V23H82.1657V7.376H86.9537Z" fill="#FF3D00"/>
</svg>
