<svg width="35" height="35" viewBox="0 0 35 35" fill="none" xmlns="http://www.w3.org/2000/svg">
<rect width="35" height="35" rx="17.5" fill="url(#paint0_linear_169_759)"/>
<path d="M17.5 7.70694C20.6885 7.70694 21.0665 7.71744 22.3265 7.77694C23.492 7.82944 24.1255 8.02544 24.5455 8.18994C25.102 8.40694 25.501 8.66594 25.9175 9.08244C26.334 9.49894 26.593 9.89794 26.81 10.4544C26.9745 10.8744 27.167 11.5079 27.223 12.6734C27.279 13.9334 27.293 14.3114 27.293 17.4999C27.293 20.6884 27.2825 21.0664 27.223 22.3264C27.1705 23.4919 26.9745 24.1254 26.81 24.5454C26.593 25.1019 26.334 25.5009 25.9175 25.9174C25.501 26.3339 25.102 26.5929 24.5455 26.8099C24.1255 26.9744 23.492 27.1669 22.3265 27.2229C21.0665 27.2789 20.6885 27.2929 17.5 27.2929C14.3115 27.2929 13.9335 27.2824 12.6735 27.2229C11.508 27.1704 10.8745 26.9744 10.4545 26.8099C9.89803 26.5929 9.49902 26.3339 9.08252 25.9174C8.66602 25.5009 8.40702 25.1019 8.19002 24.5454C8.02552 24.1254 7.83302 23.4919 7.77702 22.3264C7.72102 21.0664 7.70702 20.6884 7.70702 17.4999C7.70702 14.3114 7.71752 13.9334 7.77702 12.6734C7.82952 11.5079 8.02552 10.8744 8.19002 10.4544C8.40702 9.89794 8.66602 9.49894 9.08252 9.08244C9.49902 8.66594 9.89803 8.40694 10.4545 8.18994C10.8745 8.02544 11.508 7.83294 12.6735 7.77694C13.9335 7.71744 14.3115 7.70694 17.5 7.70694ZM17.5 5.55444C14.2555 5.55444 13.8495 5.56844 12.5755 5.62794C11.305 5.68744 10.437 5.88694 9.67402 6.18444C8.89002 6.48544 8.22152 6.89494 7.56002 7.55994C6.89503 8.22494 6.48903 8.88994 6.18103 9.67744C5.88703 10.4369 5.68403 11.3049 5.62453 12.5789C5.56503 13.8529 5.55103 14.2589 5.55103 17.5034C5.55103 20.7479 5.56503 21.1539 5.62453 22.4279C5.68403 23.6984 5.88353 24.5664 6.18103 25.3294C6.48553 26.1099 6.89503 26.7784 7.56002 27.4399C8.22502 28.1049 8.89002 28.5109 9.67752 28.8189C10.437 29.1129 11.305 29.3159 12.579 29.3754C13.853 29.4349 14.259 29.4489 17.5035 29.4489C20.748 29.4489 21.154 29.4349 22.428 29.3754C23.6985 29.3159 24.5665 29.1164 25.3295 28.8189C26.11 28.5144 26.7785 28.1049 27.44 27.4399C28.105 26.7749 28.511 26.1099 28.819 25.3224C29.113 24.5629 29.316 23.6949 29.3755 22.4209C29.435 21.1469 29.449 20.7409 29.449 17.4964C29.449 14.2519 29.435 13.8459 29.3755 12.5719C29.316 11.3014 29.1165 10.4334 28.819 9.67044C28.5145 8.88994 28.105 8.22144 27.44 7.55994C26.775 6.89494 26.11 6.48894 25.3225 6.18094C24.563 5.88694 23.695 5.68394 22.421 5.62444C21.1505 5.56844 20.7445 5.55444 17.5 5.55444Z" fill="white"/>
<path d="M17.5 11.3645C14.112 11.3645 11.3645 14.112 11.3645 17.5C11.3645 20.888 14.112 23.6355 17.5 23.6355C20.888 23.6355 23.6355 20.888 23.6355 17.5C23.6355 14.112 20.888 11.3645 17.5 11.3645ZM17.5 21.483C15.302 21.483 13.517 19.7015 13.517 17.5C13.517 15.2985 15.302 13.517 17.5 13.517C19.698 13.517 21.483 15.2985 21.483 17.5C21.483 19.7015 19.698 21.483 17.5 21.483Z" fill="white"/>
<path d="M23.8771 12.558C24.6697 12.558 25.3121 11.9155 25.3121 11.123C25.3121 10.3305 24.6697 9.68799 23.8771 9.68799C23.0846 9.68799 22.4421 10.3305 22.4421 11.123C22.4421 11.9155 23.0846 12.558 23.8771 12.558Z" fill="white"/>
<defs>
<linearGradient id="paint0_linear_169_759" x1="5.12563" y1="29.8744" x2="29.8744" y2="5.12563" gradientUnits="userSpaceOnUse">
<stop stop-color="#FFD521"/>
<stop offset="0.0551048" stop-color="#FFD020"/>
<stop offset="0.1241" stop-color="#FEC01E"/>
<stop offset="0.2004" stop-color="#FCA71B"/>
<stop offset="0.2821" stop-color="#FA8316"/>
<stop offset="0.3681" stop-color="#F85510"/>
<stop offset="0.4563" stop-color="#F51E09"/>
<stop offset="0.5" stop-color="#F30005"/>
<stop offset="0.5035" stop-color="#F20007"/>
<stop offset="0.5966" stop-color="#E1003B"/>
<stop offset="0.6879" stop-color="#D30067"/>
<stop offset="0.7757" stop-color="#C70088"/>
<stop offset="0.8589" stop-color="#BF00A0"/>
<stop offset="0.9357" stop-color="#BB00AF"/>
<stop offset="1" stop-color="#B900B4"/>
</linearGradient>
</defs>
</svg>
